<mxfile host="app.diagrams.net" modified="2024-03-08T02:10:15.247Z" agent="Mozilla/5.0 (Windows NT 10.0; Win64; x64) AppleWebKit/537.36 (KHTML, like Gecko) Chrome/122.0.0.0 Safari/537.36" version="24.0.2" etag="x6mF2xXFFJcMgMSBbhOQ" type="github">
  <diagram name="Halaman-1" id="vO9BqqNtQ4W0n74wTYUk">
    <mxGraphModel>
      <root>
        <mxCell id="0" />
        <mxCell id="1" parent="0" />
      </root>
    </mxGraphModel>
  </diagram>
</mxfile>
